<svg id="a0418bf8-6b2c-4cf3-b822-7849ead839b9" data-name="logo" xmlns="http://www.w3.org/2000/svg" width="34.53725mm" height="33.13923mm" viewBox="0 0 97.90087 93.93799">
  <circle cx="82.31032" cy="61.73679" r="15.59055" style="fill: #aa1d45"/>
  <path fill="#1A1A1A" d="M309.10534,233.46646a21.22513,21.22513,0,0,1-3.57935-.32556v2.01892a2.16358,2.16358,0,0,1-2.16113,2.16113H236.04259a2.16316,2.16316,0,0,1-2.16064-2.16113V159.71793a2.16317,2.16317,0,0,1,2.16064-2.16114h67.32227a2.16359,2.16359,0,0,1,2.16113,2.16114v31.55444a19.77464,19.77464,0,0,1,7.08594-.01111V159.71793a9.25835,9.25835,0,0,0-9.24707-9.24805H236.04259a9.25845,9.25845,0,0,0-9.24756,9.24805v75.44189a9.25845,9.25845,0,0,0,9.24756,9.24805h67.32227a9.25835,9.25835,0,0,0,9.24707-9.24805V233.152A21.21845,21.21845,0,0,1,309.10534,233.46646Z" transform="translate(-226.79503 -150.46988)"/>
</svg>
