<svg id="fd2e36c4-cc5e-4c4e-9668-b851a48ef3c4" data-name="logo dark" xmlns="http://www.w3.org/2000/svg" width="34.53725mm" height="33.13923mm" viewBox="0 0 97.90087 93.93799">
  <circle cx="82.31032" cy="61.73679" r="15.59055" style="fill: #aa1d45"/>
  <path d="M-131.68914,281.20566a21.22614,21.22614,0,0,1-3.57934-.32556V282.899a2.16359,2.16359,0,0,1-2.16113,2.16113h-67.32227a2.16316,2.16316,0,0,1-2.16064-2.16113v-75.4419a2.16316,2.16316,0,0,1,2.16064-2.16113h67.32227a2.16359,2.16359,0,0,1,2.16113,2.16113v31.55445a21.22511,21.22511,0,0,1,3.57934-.32557,21.21857,21.21857,0,0,1,3.5066.31446V207.45712a9.25834,9.25834,0,0,0-9.24707-9.248h-67.32227a9.25845,9.25845,0,0,0-9.24756,9.248V282.899a9.25845,9.25845,0,0,0,9.24756,9.248h67.32227a9.25834,9.25834,0,0,0,9.24707-9.248V280.8912A21.21857,21.21857,0,0,1-131.68914,281.20566Z" transform="translate(213.99944 -198.20908)" style="fill: #fff"/>
</svg>
