<svg id="a1e310fe-c266-40c5-8792-12a10522cce3" data-name="wordmark" xmlns="http://www.w3.org/2000/svg" width="139.04989mm" height="32.23938mm" viewBox="0 0 394.15718 91.38721">
  <g>
    <path fill="#1A1A1A" d="M116.885,287.86818a9.78935,9.78935,0,0,1-3.51563-1.96582,6.328,6.328,0,0,1-1.96582-4.67773,6.55855,6.55855,0,0,1,2.04883-4.78907,13.92022,13.92022,0,0,1,10.4082-4.06933,15.40013,15.40013,0,0,1,11.90332,5.56347,1.85013,1.85013,0,0,1,.41553,1.30176,2.22145,2.22145,0,0,1-2.21484,2.21387,1.93174,1.93174,0,0,1-1.46729-.58106q-.55371-.58153-.80273-.83007a10.67214,10.67214,0,0,0-7.834-3.23926,9.65241,9.65241,0,0,0-7.33545,2.8789,2.90311,2.90311,0,0,0-.66455,1.91016,1.89609,1.89609,0,0,0,1.35645,1.77148l13.61963,4.5127a9.79914,9.79914,0,0,1,3.51562,1.96484,6.33161,6.33161,0,0,1,1.96533,4.67871,6.5618,6.5618,0,0,1-2.04834,4.78907,13.92284,13.92284,0,0,1-10.40869,4.06933,15.34346,15.34346,0,0,1-11.90332-5.56445,2.1854,2.1854,0,0,1-.415-1.30078,2.22062,2.22062,0,0,1,2.21436-2.21485,1.93456,1.93456,0,0,1,1.46728.58106q.55371.58154.80274.83105a10.67124,10.67124,0,0,0,7.834,3.23829,9.65068,9.65068,0,0,0,7.33594-2.87891,2.90088,2.90088,0,0,0,.66406-1.91016,1.89809,1.89809,0,0,0-1.356-1.77148Z" transform="translate(-86.38598 -237.77096)"/>
    <path fill="#1A1A1A" d="M169.53592,301.15529a2.2146,2.2146,0,0,1-4.4292,0v-1.79883a14.3973,14.3973,0,0,1-24.36036-10.38086V274.58009a2.2146,2.2146,0,0,1,4.4292,0V288.9756a9.96558,9.96558,0,0,0,19.93116,0V274.58009a2.2146,2.2146,0,0,1,4.4292,0Z" transform="translate(-86.38598 -237.77096)"/>
    <path fill="#1A1A1A" d="M173.96511,274.58009a2.2146,2.2146,0,0,1,4.4292,0v2.43653a15.12021,15.12021,0,0,1,11.07276-4.65039,15.60057,15.60057,0,0,1,5.95166,1.10742,2.827,2.827,0,0,1,.91357.58105,2.20247,2.20247,0,0,1,.63672,1.57813,2.21845,2.21845,0,0,1-3.1831,1.99316,10.98736,10.98736,0,0,0-4.31885-.83105,11.05872,11.05872,0,0,0-11.07276,11.07324v13.28711a2.2146,2.2146,0,0,1-4.4292,0Z" transform="translate(-86.38598 -237.77096)"/>
    <path fill="#1A1A1A" d="M218.25662,259.07814a2.21485,2.21485,0,0,1,0,4.42969q-8.85864,0-8.8584,8.8584v1.66113h6.67139a2.21436,2.21436,0,0,1,0,4.42871h-6.67139v22.69922a2.2146,2.2146,0,0,1-4.4292,0V278.45607h-2.21435a2.21436,2.21436,0,0,1,0-4.42871H204.969v-1.66113Q204.969,259.07863,218.25662,259.07814Z" transform="translate(-86.38598 -237.77096)"/>
    <path fill="#1A1A1A" d="M249.26,298.71974a15.12508,15.12508,0,0,1-11.07325,4.65039,15.50317,15.50317,0,1,1,15.502-15.502v13.28711a2.21436,2.21436,0,0,1-4.42871,0Zm-11.07325-21.9248a11.05789,11.05789,0,1,0,7.835,3.23926A10.671,10.671,0,0,0,238.18679,276.79494Z" transform="translate(-86.38598 -237.77096)"/>
    <path fill="#1A1A1A" d="M282.20144,295.78517A2.2206,2.2206,0,0,1,284.41629,298a2.29241,2.29241,0,0,1-.69239,1.63281,15.50146,15.50146,0,1,1,0-23.53028,2.21131,2.21131,0,0,1,.77539,1.7168,2.22061,2.22061,0,0,1-2.21484,2.21485,2.15719,2.15719,0,0,1-1.41113-.499,11.07149,11.07149,0,1,0-.02832,16.69238A2.17763,2.17763,0,0,1,282.20144,295.78517Z" transform="translate(-86.38598 -237.77096)"/>
    <path fill="#1A1A1A" d="M313.15066,295.84084a2.22061,2.22061,0,0,1,2.21387,2.21386,2.2021,2.2021,0,0,1-.63672,1.57813,15.51145,15.51145,0,1,1,5.39844-11.76465,2.2206,2.2206,0,0,1-2.21485,2.21387h-24.166a11.12409,11.12409,0,0,0,10.8789,8.8584,10.44539,10.44539,0,0,0,7.14161-2.62989A2.20514,2.20514,0,0,1,313.15066,295.84084Zm2.35254-10.1875a11.11128,11.11128,0,0,0-21.75781,0Z" transform="translate(-86.38598 -237.77096)"/>
    <path fill="#1A1A1A" d="M351.13015,261.23732a2.21436,2.21436,0,0,1,4.42871,0v26.63086a15.499,15.499,0,1,1-4.53906-10.96191c.03613.03711.07324.07324.11035.11035Zm0,26.63086a11.05624,11.05624,0,1,0-3.23828,7.834A10.67122,10.67122,0,0,0,351.13015,287.86818Z" transform="translate(-86.38598 -237.77096)"/>
  </g>
  <g>
    <path fill="#1A1A1A" d="M427.39374,298.71974a15.125,15.125,0,0,1-11.07324,4.65039,15.50249,15.50249,0,1,1,15.502-15.502v13.28711a2.21436,2.21436,0,0,1-4.42871,0Zm-11.07324-21.9248a11.05954,11.05954,0,1,0,7.834,3.23926A10.67212,10.67212,0,0,0,416.3205,276.79494Z" transform="translate(-86.38598 -237.77096)"/>
    <path fill="#1A1A1A" d="M436.25117,274.58009a2.21484,2.21484,0,0,1,4.42968,0v2.43653a15.11912,15.11912,0,0,1,11.07227-4.65039,15.60134,15.60134,0,0,1,5.95215,1.10742,2.82493,2.82493,0,0,1,.91308.58105,2.20045,2.20045,0,0,1,.63672,1.57813,2.21805,2.21805,0,0,1-3.18262,1.99316,10.98971,10.98971,0,0,0-4.31933-.83105,11.05789,11.05789,0,0,0-11.07227,11.07324v13.28711a2.21484,2.21484,0,0,1-4.42968,0Z" transform="translate(-86.38598 -237.77096)"/>
    <path fill="#1A1A1A" d="M478.32831,298.94045a2.21484,2.21484,0,0,1,0,4.42968q-11.07274,0-11.07324-11.07324v-15.502H465.0412a2.21436,2.21436,0,0,1,0-4.42871h2.21387V261.293a2.21485,2.21485,0,0,1,4.42969,0v11.07325h4.457a2.21436,2.21436,0,0,1,0,4.42871h-4.457v15.502Q471.68476,298.94142,478.32831,298.94045Z" transform="translate(-86.38598 -237.77096)"/>
  </g>
  <path fill="#1A1A1A" d="M378.34447,318.0748a19.88485,19.88485,0,0,1-2.3042-.14527v3.256a3.44,3.44,0,0,1-3.43652,3.43653H94.35912a3.44038,3.44038,0,0,1-3.437-3.43653V245.74362a3.44037,3.44037,0,0,1,3.437-3.43652H372.60375a3.44,3.44,0,0,1,3.43652,3.43652v32.79144a18.48773,18.48773,0,0,1,4.53516-.01123V245.74362a7.98135,7.98135,0,0,0-7.97168-7.97266H94.35912a7.982,7.982,0,0,0-7.97314,7.97266v75.44189a7.982,7.982,0,0,0,7.97314,7.97266H372.60375a7.98135,7.98135,0,0,0,7.97168-7.97266v-3.24475A19.915,19.915,0,0,1,378.34447,318.0748Z" transform="translate(-86.38598 -237.77096)"/>
  <circle cx="291.95848" cy="60.46134" r="15.59055" style="fill: #aa1d45"/>
</svg>
